<svg viewBox="0 0 280 160" xmlns="http://www.w3.org/2000/svg" width="280" height="160">
  <rect width="280" height="160" fill="#F7F7FB" rx="8"/>
  <rect x="12" y="12" width="256" height="136" rx="10" fill="#fff" stroke="#E2E1F0" stroke-width="1.5"/>
  <text x="24" y="31" font-size="11" font-weight="700" fill="#534AB7" font-family="sans-serif">操作履歴</text>
  <line x1="20" y1="37" x2="260" y2="37" stroke="#E2E1F0" stroke-width="1"/>
  <rect x="20" y="44" width="240" height="28" rx="5" fill="#F7F7FB" stroke="#E2E1F0" stroke-width="1"/>
  <rect x="20" y="44" width="3" height="28" rx="1.5" fill="#534AB7"/>
  <text x="32" y="62" font-size="9" font-weight="600" fill="#1A1A2E" font-family="sans-serif">ロール変更: 一般 → 管理者</text>
  <rect x="188" y="50" width="64" height="16" rx="3" fill="#EEEDFA" stroke="#534AB7" stroke-width="1"/>
  <text x="220" y="62" text-anchor="middle" font-size="8" fill="#534AB7" font-family="sans-serif">巻き戻し</text>
  <rect x="20" y="79" width="240" height="28" rx="5" fill="#FFF5F5" stroke="#FECACA" stroke-width="1"/>
  <rect x="20" y="79" width="3" height="28" rx="1.5" fill="#EF4444"/>
  <text x="32" y="97" font-size="9" font-weight="600" fill="#C53030" font-family="sans-serif">BAN: banned@ex.com</text>
  <rect x="188" y="85" width="64" height="16" rx="3" fill="#EEEDFA" stroke="#534AB7" stroke-width="1"/>
  <text x="220" y="97" text-anchor="middle" font-size="8" fill="#534AB7" font-family="sans-serif">巻き戻し</text>
  <rect x="20" y="114" width="240" height="28" rx="5" fill="#F0FFF4" stroke="#BBF7D0" stroke-width="1"/>
  <rect x="20" y="114" width="3" height="28" rx="1.5" fill="#10B981"/>
  <text x="32" y="132" font-size="9" font-weight="600" fill="#065F46" font-family="sans-serif">サジェスト追加: こころ</text>
  <text x="255" y="132" text-anchor="end" font-size="8" fill="#9CA3AF" font-family="sans-serif">05/16 15:22</text>
</svg>
