<svg viewBox="0 0 280 160" xmlns="http://www.w3.org/2000/svg" width="280" height="160">
  <rect width="280" height="160" fill="#F7F7FB" rx="8"/>
  <rect x="12" y="12" width="256" height="136" rx="10" fill="#fff" stroke="#E2E1F0" stroke-width="1.5"/>
  <text x="24" y="32" font-size="11" font-weight="700" fill="#534AB7" font-family="sans-serif">全体統計</text>
  <g transform="translate(20,42)">
    <rect width="74" height="44" rx="6" fill="#F7F7FB" stroke="#E2E1F0" stroke-width="1"/>
    <text x="37" y="20" text-anchor="middle" font-size="14" font-weight="700" fill="#534AB7" font-family="sans-serif">12</text>
    <text x="37" y="36" text-anchor="middle" font-size="8" fill="#6B6B8A" font-family="sans-serif">総ユーザー</text>
  </g>
  <g transform="translate(102,42)">
    <rect width="74" height="44" rx="6" fill="#F7F7FB" stroke="#E2E1F0" stroke-width="1"/>
    <text x="37" y="20" text-anchor="middle" font-size="14" font-weight="700" fill="#534AB7" font-family="sans-serif">87</text>
    <text x="37" y="36" text-anchor="middle" font-size="8" fill="#6B6B8A" font-family="sans-serif">登録冊数</text>
  </g>
  <g transform="translate(184,42)">
    <rect width="74" height="44" rx="6" fill="#F7F7FB" stroke="#E2E1F0" stroke-width="1"/>
    <text x="37" y="20" text-anchor="middle" font-size="14" font-weight="700" fill="#534AB7" font-family="sans-serif">34</text>
    <text x="37" y="36" text-anchor="middle" font-size="8" fill="#6B6B8A" font-family="sans-serif">読了冊数</text>
  </g>
  <g transform="translate(20,96)">
    <rect width="74" height="44" rx="6" fill="#F7F7FB" stroke="#E2E1F0" stroke-width="1"/>
    <text x="37" y="20" text-anchor="middle" font-size="14" font-weight="700" fill="#534AB7" font-family="sans-serif">256</text>
    <text x="37" y="36" text-anchor="middle" font-size="8" fill="#6B6B8A" font-family="sans-serif">セッション</text>
  </g>
  <g transform="translate(102,96)">
    <rect width="74" height="44" rx="6" fill="#F7F7FB" stroke="#E2E1F0" stroke-width="1"/>
    <text x="37" y="20" text-anchor="middle" font-size="14" font-weight="700" fill="#534AB7" font-family="sans-serif">6400</text>
    <text x="37" y="36" text-anchor="middle" font-size="8" fill="#6B6B8A" font-family="sans-serif">集中時間(分)</text>
  </g>
  <g transform="translate(184,96)">
    <rect width="74" height="44" rx="6" fill="#F7F7FB" stroke="#E2E1F0" stroke-width="1"/>
    <text x="37" y="20" text-anchor="middle" font-size="14" font-weight="700" fill="#534AB7" font-family="sans-serif">21</text>
    <text x="37" y="36" text-anchor="middle" font-size="8" fill="#6B6B8A" font-family="sans-serif">平均/人</text>
  </g>
</svg>
